# xmcd
#
# Track frame offsets:
#	150
#	11618
#	24362
#	39506
#	49650
#	64466
#	76243
#	93501
#	109733
#	121813
#	134940
#	150536
#	162945
#	171661
#
# Disc length: 2437 seconds
#
# Revision: 0
# Processed by: cddbd v1.5.2PL0 Copyright (c) Steve Scherf et al.
# Submitted via: audiograbber 1.83.01
#
DISCID=b909830e
DTITLE=Trio Sonnwend - Wenn die Musik erklingt
DYEAR=2014
DGENRE=volkstümlich
TTITLE0=I tonz so gern am Trochtenball
TTITLE1=Haxnschmeisser Boarischer
TTITLE2=Ein schöner Abend allein mit dir
TTITLE3=Der Bretter Bodn Boarische
TTITLE4=Wenn die Musik erklingt
TTITLE5=Loss Diand`l ummanond
TTITLE6=Rompla Polka
TTITLE7=Mei scheane Hoamat Tirol
TTITLE8=Der Trio Sonnwend Boarische
TTITLE9=Polka Express
TTITLE10=Nur der Mond
TTITLE11=Rosi Polka
TTITLE12=Ein Musikant im Trachtengwand
TTITLE13=Tür an Tür mit Alice
EXTD=
EXTT0=
EXTT1=
EXTT2=
EXTT3=
EXTT4=
EXTT5=
EXTT6=
EXTT7=
EXTT8=
EXTT9=
EXTT10=
EXTT11=
EXTT12=
EXTT13=
PLAYORDER=
